<?xml version="1.0" standalone="no"?>
<!DOCTYPE svg PUBLIC "-//W3C//DTD SVG 20010904//EN"
 "http://www.w3.org/TR/2001/REC-SVG-20010904/DTD/svg10.dtd">
<svg version="1.0" xmlns="http://www.w3.org/2000/svg"
 width="1020.000000pt" height="1020.000000pt" viewBox="0 0 1020.000000 1020.000000"
 preserveAspectRatio="xMidYMid meet">

<g transform="translate(0.000000,1020.000000) scale(0.100000,-0.100000)"
fill="#000000" stroke="none">
<path d="M0 5100 l0 -5100 5100 0 5100 0 0 5100 0 5100 -5100 0 -5100 0 0
-5100z m5183 3862 c42 -158 77 -293 77 -300 0 -8 32 -129 71 -270 70 -254 111
-423 105 -430 -2 -2 -79 2 -170 8 -124 9 -208 9 -332 0 -91 -6 -168 -10 -169
-8 -7 7 27 147 100 413 41 151 75 280 75 287 0 20 154 588 160 588 3 0 40
-129 83 -288z m-1632 -69 c18 -27 52 -70 75 -98 23 -27 61 -78 85 -111 24 -34
98 -132 164 -219 66 -86 141 -186 167 -221 25 -36 71 -95 100 -132 30 -37 65
-83 78 -102 13 -19 41 -56 62 -81 21 -26 38 -51 38 -56 0 -6 -37 -20 -82 -32
-106 -28 -228 -77 -403 -161 -77 -38 -142 -66 -144 -64 -5 5 -86 572 -106 744
-9 74 -29 226 -45 338 -30 205 -34 242 -25 242 2 0 19 -21 36 -47z m3105 -230
c-19 -136 -42 -309 -51 -383 -22 -182 -92 -660 -96 -665 -2 -1 -67 27 -144 65
-175 84 -297 133 -403 161 -45 12 -82 26 -82 31 0 5 20 34 45 66 47 60 104
135 183 240 26 35 81 107 122 161 41 54 112 148 157 207 45 60 111 147 147
194 36 47 85 112 108 145 29 41 44 55 46 43 2 -9 -12 -128 -32 -265z m-4231
-773 c72 -42 202 -119 290 -170 88 -51 219 -128 290 -170 72 -42 172 -101 223
-131 50 -29 92 -56 92 -60 0 -3 -18 -19 -41 -33 -53 -35 -370 -352 -405 -405
-14 -23 -30 -41 -33 -41 -4 0 -31 42 -60 93 -89 152 -219 374 -303 514 -43 72
-78 133 -78 136 0 3 -35 63 -78 134 -43 70 -97 163 -121 206 l-43 79 69 -38
c37 -20 127 -72 198 -114z m5579 83 c-20 -38 -72 -126 -114 -198 -134 -227
-353 -601 -471 -802 -29 -51 -56 -93 -60 -93 -3 0 -19 18 -33 41 -15 22 -103
116 -196 209 -93 93 -187 181 -209 196 -23 14 -41 30 -41 33 0 4 42 31 93 60
50 30 155 91 232 136 77 46 208 122 290 170 83 49 197 116 255 151 99 59 281
163 288 164 2 0 -14 -30 -34 -67z m-2511 -382 c344 -61 701 -196 951 -358 309
-201 594 -485 781 -778 90 -142 206 -384 256 -535 106 -322 134 -493 133 -820
0 -329 -25 -485 -126 -795 -118 -362 -332 -708 -609 -984 -392 -393 -907 -646
-1469 -722 -123 -17 -497 -17 -620 0 -562 76 -1077 329 -1469 722 -384 384
-635 883 -717 1429 -25 163 -25 541 -1 700 43 281 130 551 250 784 46 88 101
188 122 221 187 293 472 577 781 778 257 167 649 312 976 361 160 24 159 24
408 21 185 -2 260 -7 353 -24z m-3960 -936 c133 -19 301 -41 372 -50 150 -18
617 -83 657 -91 l27 -5 -43 -87 c-71 -142 -142 -312 -177 -423 -18 -57 -35
-107 -38 -111 -4 -4 -60 33 -126 83 -66 50 -226 171 -355 268 -129 98 -290
220 -358 272 -67 52 -145 110 -172 129 -48 34 -61 50 -39 50 6 0 119 -16 252
-35z m7396 28 c0 -5 -26 -27 -57 -49 -31 -23 -106 -80 -167 -126 -60 -46 -220
-167 -355 -269 -135 -102 -297 -224 -360 -272 -63 -48 -117 -83 -121 -79 -3 4
-20 54 -38 111 -35 111 -106 281 -177 423 l-43 86 57 10 c31 6 199 29 372 52
173 24 432 59 575 80 282 40 315 44 314 33z m-6693 -1300 c-15 -140 -18 -346
-7 -476 7 -76 11 -140 9 -143 -4 -3 -77 15 -783 199 -452 118 -495 130 -495
137 0 6 302 89 510 140 69 17 215 56 325 86 200 54 422 111 439 113 5 1 6 -25
2 -56z m5979 -9 c121 -31 337 -87 480 -124 385 -100 545 -144 545 -150 0 -7
-43 -18 -495 -137 -706 -184 -779 -202 -783 -199 -2 3 2 67 9 143 11 131 8
324 -7 472 -7 59 -6 63 12 58 10 -3 118 -31 239 -63z m-5860 -1133 c25 -98
105 -292 190 -463 24 -49 42 -88 39 -88 -2 0 -48 -7 -102 -15 -53 -8 -252 -35
-442 -60 -190 -25 -439 -59 -553 -76 -196 -29 -245 -31 -205 -8 9 5 39 26 65
46 88 68 356 272 753 571 91 69 178 136 194 149 16 13 32 20 37 16 4 -4 15
-37 24 -72z m5667 -32 c62 -48 208 -158 323 -246 232 -176 435 -330 508 -386
26 -20 56 -41 65 -46 41 -23 -11 -20 -240 13 -133 19 -335 47 -447 61 -113 14
-297 39 -409 55 -112 17 -206 30 -208 30 -1 0 17 39 41 88 85 170 165 365 190
463 9 35 19 67 22 72 6 9 2 11 155 -104z m-5062 -1029 c84 -93 204 -210 293
-285 37 -32 66 -59 65 -60 -2 -2 -61 -36 -133 -78 -71 -41 -209 -121 -305
-177 -548 -321 -703 -410 -707 -407 -3 4 97 183 186 332 27 44 88 148 136 230
48 83 124 213 169 290 46 77 103 175 127 218 l44 77 29 -32 c16 -18 59 -67 96
-108z m4578 -160 c168 -287 256 -436 305 -520 93 -155 187 -323 184 -327 -4
-3 -185 99 -332 186 -44 27 -147 88 -230 136 -82 48 -213 124 -290 170 -77 45
-175 103 -218 127 l-78 45 68 57 c117 100 250 233 362 364 l54 62 45 -77 c25
-43 83 -143 130 -223z m-3612 -545 c120 -54 256 -104 383 -141 9 -3 10 -8 3
-17 -5 -6 -45 -59 -89 -117 -43 -58 -142 -188 -219 -290 -77 -102 -197 -259
-265 -350 -209 -276 -221 -291 -226 -287 -2 3 9 99 26 213 17 115 49 347 71
517 22 169 49 368 60 443 11 74 20 138 20 140 0 3 20 -6 44 -20 24 -14 110
-55 192 -91z m2614 -106 c17 -118 44 -320 61 -449 16 -129 44 -327 60 -438 17
-112 28 -206 26 -209 -3 -2 -26 24 -53 59 -126 165 -307 404 -653 863 -46 61
-88 116 -93 122 -7 9 -6 14 3 17 182 54 484 176 579 234 19 12 35 20 37 18 2
-1 17 -99 33 -217z m-1530 -145 c85 -4 203 -2 284 5 76 6 140 10 142 9 3 -4 0
-14 -95 -378 -39 -146 -95 -362 -125 -480 -82 -316 -110 -420 -116 -420 -3 0
-18 46 -33 103 -33 122 -180 685 -248 952 -27 105 -52 199 -55 209 -6 18 -2
19 47 13 30 -4 119 -10 199 -13z"/>
<path d="M5029 6834 c-63 -19 -113 -75 -128 -143 -7 -35 -11 -270 -11 -725 0
-744 0 -743 62 -803 114 -110 299 -66 343 81 13 42 15 159 15 722 0 455 -4
690 -11 725 -15 70 -64 124 -132 144 -61 18 -78 18 -138 -1z"/>
<path d="M4362 6565 c-270 -145 -475 -327 -623 -552 -167 -256 -251 -522 -266
-843 -17 -380 100 -744 336 -1050 212 -274 546 -500 856 -579 281 -71 510 -76
800 -15 567 119 1063 597 1206 1162 101 400 65 793 -102 1129 -128 257 -283
445 -498 606 -70 52 -234 148 -289 170 -107 42 -219 2 -279 -101 -49 -84 -32
-203 39 -269 12 -12 66 -47 118 -78 145 -87 208 -135 293 -224 236 -247 353
-590 318 -932 -6 -58 -20 -139 -32 -180 -22 -84 -107 -263 -168 -357 -52 -79
-185 -218 -270 -282 -99 -73 -290 -166 -406 -197 -92 -25 -115 -27 -295 -27
-180 0 -203 2 -295 27 -113 31 -311 124 -395 186 -79 59 -215 196 -265 266
-58 82 -128 215 -159 302 -71 202 -81 471 -26 690 24 90 110 276 175 372 24
37 93 115 153 172 86 83 131 117 220 167 132 75 166 102 192 151 29 58 34 103
16 163 -28 97 -121 168 -221 168 -40 0 -66 -9 -133 -45z"/>
</g>
</svg>
